<?xml version="1.0" encoding="UTF-8"?>
<svg id="Capa_1" data-name="Capa 1" xmlns="http://www.w3.org/2000/svg" viewBox="0 0 1920 1080">
  <defs>
    <style>
      .cls-1 {
        fill: #041c4c;
      }

      .cls-2 {
        fill: #e15517;
      }

      .cls-3 {
        fill: #fff;
      }

      .cls-4 {
        fill: #393939;
      }

      .cls-5 {
        fill: #bdbdbd;
      }

      .cls-6 {
        fill: #06477d;
      }

      .cls-7 {
        fill: none;
      }

      .cls-8 {
        fill: #0388c0;
      }

      .cls-9 {
        fill: #1a1a1a;
      }

      .cls-10 {
        fill: #666;
      }
    </style>
  </defs>
  <g>
    <g>
      <path class="cls-1" d="m969.01,610.91v7.36h5.78v4.11h-5.78v18.52c0,1.43.3,2.43.89,3.02.59.58,1.38.87,2.35.87.32,0,.68-.04,1.07-.13.39-.09.72-.17.99-.27l.76,3.81c-.41.34-1.02.61-1.83.83-.81.22-1.61.32-2.4.32-2.26,0-4.05-.68-5.38-2.04s-2-3.5-2-6.41v-18.52h-4.85v-4.11h4.85v-7.36h5.55Z"/>
      <path class="cls-1" d="m998.05,623.18l-2.85-.17c-1.47,0-2.7.35-3.71,1.04-1.01.7-1.78,1.67-2.33,2.93v21.79h-5.55v-30.5h4.96l.54,4.45c.86-1.58,1.93-2.81,3.2-3.69,1.27-.88,2.73-1.32,4.38-1.32.41,0,.81.03,1.18.1.38.07.69.14.93.21l-.76,5.16Z"/>
      <path class="cls-1" d="m1025.46,648.77c-.19-.92-.33-1.73-.44-2.44s-.16-1.41-.18-2.13c-1.03,1.47-2.38,2.69-4.05,3.68-1.66.99-3.45,1.48-5.37,1.48-3.18,0-5.59-.81-7.26-2.44-1.66-1.62-2.49-3.87-2.49-6.72s1.18-5.19,3.54-6.84c2.36-1.64,5.56-2.47,9.6-2.47h6.03v-3.02c0-1.78-.55-3.2-1.64-4.24-1.09-1.04-2.63-1.56-4.62-1.56-1.8,0-3.26.45-4.37,1.35-1.11.9-1.66,1.98-1.66,3.24l-5.27.06-.06-.17c-.13-2.22.91-4.25,3.11-6.09s5.06-2.76,8.55-2.76,6.24.88,8.34,2.64c2.1,1.76,3.16,4.29,3.16,7.6v14.68c0,1.09.06,2.14.17,3.16.11,1.02.32,2.01.62,2.99h-5.72Zm-9.22-4.06c2.01,0,3.82-.52,5.44-1.55,1.62-1.03,2.67-2.22,3.16-3.55v-4.96h-6.23c-2.24,0-4.03.56-5.37,1.69-1.35,1.13-2.02,2.45-2.02,3.97,0,1.35.42,2.42,1.27,3.21.85.79,2.09,1.18,3.75,1.18Z"/>
      <path class="cls-1" d="m1046.3,618.27l.39,4.54c1.02-1.62,2.29-2.87,3.82-3.76,1.53-.89,3.27-1.34,5.23-1.34,3.29,0,5.83.96,7.64,2.89,1.8,1.93,2.7,4.9,2.7,8.92v19.25h-5.55v-19.14c0-2.69-.53-4.6-1.59-5.72-1.06-1.13-2.68-1.69-4.86-1.69-1.71,0-3.16.34-4.36,1.03-1.19.69-2.14,1.65-2.83,2.89v22.63h-5.55v-30.5h4.96Z"/>
      <path class="cls-1" d="m1094.77,640.57c0-1.22-.46-2.22-1.4-2.99-.93-.77-2.69-1.45-5.28-2.03-3.59-.77-6.35-1.85-8.27-3.24-1.93-1.39-2.89-3.25-2.89-5.58,0-2.48,1.06-4.6,3.17-6.37,2.11-1.77,4.85-2.65,8.22-2.65s6.26.94,8.4,2.82c2.14,1.88,3.17,4.07,3.07,6.57l-.06.17h-5.3c0-1.32-.58-2.51-1.73-3.58-1.16-1.07-2.62-1.61-4.38-1.61-1.95,0-3.42.44-4.38,1.32-.97.88-1.45,1.94-1.45,3.16s.42,2.13,1.25,2.79,2.56,1.26,5.17,1.8c3.74.79,6.58,1.91,8.51,3.35s2.9,3.34,2.9,5.66c0,2.71-1.09,4.91-3.28,6.62-2.19,1.71-5.05,2.57-8.58,2.57-3.89,0-6.95-.99-9.19-2.96-2.24-1.97-3.3-4.27-3.19-6.91l.06-.17h5.3c.09,1.97.83,3.42,2.2,4.33,1.37.91,2.98,1.37,4.82,1.37,1.97,0,3.52-.42,4.64-1.25,1.12-.84,1.68-1.9,1.68-3.2Z"/>
      <path class="cls-1" d="m1128.86,648.77c-.19-.92-.33-1.73-.44-2.44s-.16-1.41-.18-2.13c-1.03,1.47-2.38,2.69-4.05,3.68-1.66.99-3.45,1.48-5.37,1.48-3.18,0-5.59-.81-7.26-2.44-1.66-1.62-2.49-3.87-2.49-6.72s1.18-5.19,3.54-6.84c2.36-1.64,5.56-2.47,9.6-2.47h6.03v-3.02c0-1.78-.55-3.2-1.64-4.24-1.09-1.04-2.63-1.56-4.62-1.56-1.8,0-3.26.45-4.37,1.35-1.11.9-1.66,1.98-1.66,3.24l-5.27.06-.06-.17c-.13-2.22.91-4.25,3.11-6.09,2.21-1.84,5.06-2.76,8.55-2.76s6.24.88,8.34,2.64c2.1,1.76,3.16,4.29,3.16,7.6v14.68c0,1.09.06,2.14.17,3.16.11,1.02.32,2.01.62,2.99h-5.72Zm-9.22-4.06c2.01,0,3.82-.52,5.44-1.55,1.62-1.03,2.67-2.22,3.16-3.55v-4.96h-6.23c-2.24,0-4.03.56-5.37,1.69-1.35,1.13-2.02,2.45-2.02,3.97,0,1.35.42,2.42,1.27,3.21.85.79,2.09,1.18,3.75,1.18Z"/>
      <path class="cls-1" d="m1156.86,645.02c1.71,0,3.2-.57,4.48-1.71s1.92-2.53,1.92-4.19h5.02l.09.17c.07,2.63-1.05,4.97-3.38,7-2.33,2.04-5.04,3.06-8.12,3.06-4.28,0-7.59-1.46-9.92-4.37-2.33-2.91-3.49-6.54-3.49-10.88v-1.18c0-4.3,1.17-7.92,3.51-10.84,2.34-2.92,5.64-4.38,9.91-4.38,3.4,0,6.19,1.05,8.36,3.16,2.17,2.1,3.22,4.69,3.14,7.75l-.06.17h-5.05c0-1.86-.61-3.44-1.82-4.75-1.21-1.31-2.74-1.96-4.58-1.96-2.73,0-4.71,1.06-5.96,3.17-1.25,2.11-1.87,4.67-1.87,7.68v1.18c0,3.06.62,5.65,1.85,7.75,1.23,2.1,3.23,3.16,5.99,3.16Z"/>
      <path class="cls-1" d="m1189.96,645.02c1.71,0,3.2-.57,4.48-1.71,1.28-1.14,1.92-2.53,1.92-4.19h5.02l.09.17c.07,2.63-1.05,4.97-3.38,7-2.33,2.04-5.04,3.06-8.12,3.06-4.28,0-7.59-1.46-9.92-4.37s-3.49-6.54-3.49-10.88v-1.18c0-4.3,1.17-7.92,3.51-10.84,2.34-2.92,5.64-4.38,9.91-4.38,3.4,0,6.19,1.05,8.36,3.16,2.17,2.1,3.22,4.69,3.14,7.75l-.06.17h-5.05c0-1.86-.61-3.44-1.82-4.75-1.21-1.31-2.74-1.96-4.58-1.96-2.73,0-4.71,1.06-5.96,3.17-1.25,2.11-1.87,4.67-1.87,7.68v1.18c0,3.06.62,5.65,1.85,7.75,1.23,2.1,3.23,3.16,5.99,3.16Z"/>
      <path class="cls-1" d="m1216.95,610.46h-5.55v-5.67h5.55v5.67Zm0,38.31h-5.55v-30.5h5.55v30.5Z"/>
      <path class="cls-1" d="m1227.08,633.24c0-4.51,1.22-8.22,3.66-11.15,2.44-2.92,5.76-4.38,9.95-4.38s7.57,1.46,10.02,4.37c2.45,2.91,3.68,6.63,3.68,11.16v.62c0,4.55-1.22,8.27-3.66,11.16s-5.77,4.34-9.98,4.34-7.54-1.45-9.99-4.35c-2.45-2.9-3.68-6.62-3.68-11.15v-.62Zm5.55.62c0,3.23.68,5.9,2.04,8.01,1.36,2.1,3.39,3.16,6.08,3.16s4.66-1.05,6.03-3.16c1.37-2.1,2.06-4.77,2.06-8.01v-.62c0-3.19-.69-5.85-2.07-7.98-1.38-2.12-3.41-3.18-6.07-3.18s-4.66,1.06-6.02,3.18c-1.36,2.12-2.04,4.78-2.04,7.98v.62Z"/>
      <path class="cls-1" d="m1269.03,618.27l.39,4.54c1.02-1.62,2.29-2.87,3.82-3.76,1.53-.89,3.27-1.34,5.23-1.34,3.29,0,5.83.96,7.64,2.89,1.8,1.93,2.7,4.9,2.7,8.92v19.25h-5.55v-19.14c0-2.69-.53-4.6-1.59-5.72-1.06-1.13-2.68-1.69-4.86-1.69-1.71,0-3.16.34-4.36,1.03-1.19.69-2.14,1.65-2.83,2.89v22.63h-5.55v-30.5h4.96Z"/>
      <path class="cls-1" d="m1312.4,649.36c-4.38,0-7.79-1.4-10.25-4.2-2.45-2.8-3.68-6.48-3.68-11.05v-1.24c0-4.38,1.26-8,3.79-10.87,2.53-2.86,5.61-4.3,9.26-4.3,4.08,0,7.14,1.27,9.18,3.81,2.04,2.54,3.06,5.91,3.06,10.12v2.93h-19.51l-.08.14c0,3.06.68,5.55,2.03,7.46,1.35,1.91,3.42,2.86,6.2,2.86,1.88,0,3.53-.27,4.95-.8,1.42-.53,2.64-1.27,3.65-2.21l2.17,3.61c-1.09,1.05-2.53,1.94-4.31,2.66-1.79.72-3.94,1.09-6.45,1.09Zm-.87-27.28c-1.94,0-3.54.75-4.81,2.24-1.27,1.49-2.04,3.41-2.33,5.74l.06.14h13.75v-.45c0-2.22-.55-4.05-1.64-5.5s-2.77-2.17-5.04-2.17Z"/>
      <path class="cls-1" d="m1350.6,640.57c0-1.22-.46-2.22-1.4-2.99-.93-.77-2.69-1.45-5.28-2.03-3.59-.77-6.35-1.85-8.27-3.24-1.93-1.39-2.89-3.25-2.89-5.58,0-2.48,1.06-4.6,3.17-6.37,2.11-1.77,4.85-2.65,8.22-2.65s6.26.94,8.4,2.82c2.14,1.88,3.17,4.07,3.07,6.57l-.06.17h-5.3c0-1.32-.58-2.51-1.73-3.58-1.16-1.07-2.62-1.61-4.38-1.61-1.95,0-3.42.44-4.38,1.32-.97.88-1.45,1.94-1.45,3.16s.42,2.13,1.25,2.79,2.56,1.26,5.17,1.8c3.74.79,6.58,1.91,8.51,3.35s2.9,3.34,2.9,5.66c0,2.71-1.09,4.91-3.28,6.62s-5.05,2.57-8.58,2.57c-3.89,0-6.95-.99-9.19-2.96-2.24-1.97-3.3-4.27-3.19-6.91l.06-.17h5.3c.09,1.97.83,3.42,2.2,4.33,1.37.91,2.98,1.37,4.82,1.37,1.97,0,3.52-.42,4.64-1.25,1.12-.84,1.68-1.9,1.68-3.2Z"/>
      <path class="cls-1" d="m1395.3,645.02c1.71,0,3.2-.57,4.48-1.71,1.28-1.14,1.92-2.53,1.92-4.19h5.02l.09.17c.07,2.63-1.05,4.97-3.38,7-2.33,2.04-5.04,3.06-8.12,3.06-4.28,0-7.59-1.46-9.92-4.37-2.33-2.91-3.49-6.54-3.49-10.88v-1.18c0-4.3,1.17-7.92,3.51-10.84,2.34-2.92,5.64-4.38,9.91-4.38,3.4,0,6.19,1.05,8.36,3.16,2.17,2.1,3.22,4.69,3.14,7.75l-.06.17h-5.05c0-1.86-.61-3.44-1.82-4.75-1.21-1.31-2.74-1.96-4.58-1.96-2.73,0-4.71,1.06-5.96,3.17-1.25,2.11-1.87,4.67-1.87,7.68v1.18c0,3.06.62,5.65,1.85,7.75,1.23,2.1,3.23,3.16,5.99,3.16Z"/>
      <path class="cls-1" d="m1422.29,648.77h-5.55v-43.97h5.55v43.97Z"/>
      <path class="cls-1" d="m1452.46,648.77c-.19-.92-.33-1.73-.44-2.44s-.16-1.41-.18-2.13c-1.03,1.47-2.38,2.69-4.05,3.68-1.66.99-3.45,1.48-5.37,1.48-3.18,0-5.59-.81-7.26-2.44-1.66-1.62-2.49-3.87-2.49-6.72s1.18-5.19,3.54-6.84c2.36-1.64,5.56-2.47,9.6-2.47h6.03v-3.02c0-1.78-.55-3.2-1.64-4.24-1.09-1.04-2.63-1.56-4.62-1.56-1.8,0-3.26.45-4.37,1.35-1.11.9-1.66,1.98-1.66,3.24l-5.27.06-.06-.17c-.13-2.22.91-4.25,3.11-6.09,2.21-1.84,5.06-2.76,8.55-2.76s6.24.88,8.34,2.64c2.1,1.76,3.16,4.29,3.16,7.6v14.68c0,1.09.06,2.14.17,3.16.11,1.02.32,2.01.62,2.99h-5.72Zm-9.22-4.06c2.01,0,3.82-.52,5.44-1.55,1.62-1.03,2.67-2.22,3.16-3.55v-4.96h-6.23c-2.24,0-4.03.56-5.37,1.69-1.35,1.13-2.02,2.45-2.02,3.97,0,1.35.42,2.42,1.27,3.21.85.79,2.09,1.18,3.75,1.18Z"/>
      <path class="cls-1" d="m1482.77,623.18l-2.85-.17c-1.47,0-2.7.35-3.71,1.04-1.01.7-1.78,1.67-2.33,2.93v21.79h-5.55v-30.5h4.96l.54,4.45c.86-1.58,1.93-2.81,3.2-3.69,1.27-.88,2.73-1.32,4.38-1.32.41,0,.81.03,1.18.1.38.07.69.14.93.21l-.76,5.16Z"/>
      <path class="cls-1" d="m1510.18,648.77c-.19-.92-.33-1.73-.44-2.44s-.16-1.41-.18-2.13c-1.03,1.47-2.38,2.69-4.05,3.68-1.66.99-3.45,1.48-5.37,1.48-3.18,0-5.59-.81-7.26-2.44-1.66-1.62-2.49-3.87-2.49-6.72s1.18-5.19,3.54-6.84c2.36-1.64,5.56-2.47,9.6-2.47h6.03v-3.02c0-1.78-.55-3.2-1.64-4.24-1.09-1.04-2.63-1.56-4.62-1.56-1.8,0-3.26.45-4.37,1.35-1.11.9-1.66,1.98-1.66,3.24l-5.27.06-.06-.17c-.13-2.22.91-4.25,3.11-6.09,2.21-1.84,5.06-2.76,8.55-2.76s6.24.88,8.34,2.64c2.1,1.76,3.16,4.29,3.16,7.6v14.68c0,1.09.06,2.14.17,3.16.11,1.02.32,2.01.62,2.99h-5.72Zm-9.22-4.06c2.01,0,3.82-.52,5.44-1.55,1.62-1.03,2.67-2.22,3.16-3.55v-4.96h-6.23c-2.24,0-4.03.56-5.37,1.69-1.35,1.13-2.02,2.45-2.02,3.97,0,1.35.42,2.42,1.27,3.21.85.79,2.09,1.18,3.75,1.18Z"/>
      <path class="cls-1" d="m1543.79,640.57c0-1.22-.46-2.22-1.4-2.99-.93-.77-2.69-1.45-5.28-2.03-3.59-.77-6.35-1.85-8.27-3.24s-2.89-3.25-2.89-5.58c0-2.48,1.06-4.6,3.17-6.37,2.11-1.77,4.85-2.65,8.22-2.65s6.26.94,8.4,2.82c2.14,1.88,3.17,4.07,3.07,6.57l-.06.17h-5.3c0-1.32-.58-2.51-1.73-3.58-1.16-1.07-2.62-1.61-4.38-1.61-1.95,0-3.42.44-4.38,1.32-.97.88-1.45,1.94-1.45,3.16s.42,2.13,1.25,2.79,2.56,1.26,5.17,1.8c3.74.79,6.58,1.91,8.51,3.35s2.9,3.34,2.9,5.66c0,2.71-1.09,4.91-3.28,6.62s-5.05,2.57-8.58,2.57c-3.89,0-6.95-.99-9.19-2.96-2.24-1.97-3.3-4.27-3.19-6.91l.06-.17h5.3c.09,1.97.83,3.42,2.2,4.33s2.98,1.37,4.82,1.37c1.97,0,3.52-.42,4.64-1.25,1.12-.84,1.68-1.9,1.68-3.2Z"/>
    </g>
    <g>
      <path class="cls-1" d="m1053.92,537.8h-58.1l-11.08,26.82h-29.68l55.78-125.15h28.61l55.96,125.15h-30.39l-11.08-26.82Zm-9.12-21.99l-19.84-47.92-19.84,47.92h39.69Z"/>
      <path class="cls-1" d="m1201.15,473.17c7.33,4.11,13.08,9.9,17.25,17.34,4.17,7.45,6.26,16.12,6.26,26.01s-2.09,18.57-6.26,26.01c-4.17,7.45-9.92,13.23-17.25,17.34-7.33,4.11-15.46,6.17-24.4,6.17-12.28,0-21.93-3.87-28.96-11.62v44.88h-27.89v-130.87h26.64v11.08c6.91-8.34,16.98-12.51,30.22-12.51,8.94,0,17.07,2.06,24.4,6.17Zm-11.62,62.75c4.59-4.83,6.88-11.29,6.88-19.4s-2.3-14.57-6.88-19.4c-4.59-4.83-10.46-7.24-17.61-7.24s-13.02,2.41-17.61,7.24c-4.59,4.83-6.88,11.29-6.88,19.4s2.29,14.57,6.88,19.4c4.59,4.83,10.46,7.24,17.61,7.24s13.02-2.41,17.61-7.24Z"/>
      <path class="cls-1" d="m1275.16,559.7c-8.05-4.23-14.33-10.1-18.86-17.61-4.53-7.51-6.79-16.03-6.79-25.57s2.26-18.06,6.79-25.57c4.53-7.51,10.82-13.38,18.86-17.61,8.05-4.23,17.13-6.35,27.26-6.35s19.19,2.12,27.17,6.35c7.98,4.23,14.24,10.1,18.77,17.61,4.53,7.51,6.79,16.03,6.79,25.57s-2.27,18.06-6.79,25.57c-4.53,7.51-10.79,13.38-18.77,17.61-7.99,4.23-17.05,6.35-27.17,6.35s-19.22-2.11-27.26-6.35Zm44.87-23.78c4.59-4.83,6.88-11.29,6.88-19.4s-2.3-14.57-6.88-19.4c-4.59-4.83-10.46-7.24-17.61-7.24s-13.05,2.41-17.7,7.24c-4.65,4.83-6.97,11.29-6.97,19.4s2.32,14.57,6.97,19.4c4.65,4.83,10.55,7.24,17.7,7.24s13.02-2.41,17.61-7.24Z"/>
      <path class="cls-1" d="m1387.17,431.96h27.89v132.66h-27.89v-132.66Z"/>
      <path class="cls-1" d="m1472.9,559.7c-8.05-4.23-14.33-10.1-18.86-17.61-4.53-7.51-6.79-16.03-6.79-25.57s2.26-18.06,6.79-25.57c4.53-7.51,10.82-13.38,18.86-17.61,8.05-4.23,17.13-6.35,27.26-6.35s19.19,2.12,27.17,6.35c7.98,4.23,14.24,10.1,18.77,17.61,4.53,7.51,6.79,16.03,6.79,25.57s-2.27,18.06-6.79,25.57c-4.53,7.51-10.79,13.38-18.77,17.61-7.99,4.23-17.05,6.35-27.17,6.35s-19.22-2.11-27.26-6.35Zm44.87-23.78c4.59-4.83,6.88-11.29,6.88-19.4s-2.3-14.57-6.88-19.4c-4.59-4.83-10.46-7.24-17.61-7.24s-13.05,2.41-17.7,7.24c-4.65,4.83-6.97,11.29-6.97,19.4s2.32,14.57,6.97,19.4c4.65,4.83,10.55,7.24,17.7,7.24s13.02-2.41,17.61-7.24Z"/>
    </g>
  </g>
  <g>
    <g>
      <polygon class="cls-2" points="787.33 588.35 829.35 564.09 871.38 588.35 829.35 612.61 787.33 588.35"/>
      <polygon class="cls-6" points="829.35 612.61 829.35 661.13 787.33 636.87 787.33 588.35 829.35 612.61"/>
      <polygon class="cls-1" points="871.38 588.34 871.38 636.87 871.37 636.87 871.37 636.89 829.35 661.12 829.35 612.61 871.38 588.34"/>
    </g>
    <path class="cls-5" d="m829.32,587.5c-1.12,0-2.03-.91-2.03-2.03v-69.56c0-1.12.91-2.03,2.03-2.03s2.03.91,2.03,2.03v69.56c0,1.12-.91,2.03-2.03,2.03Z"/>
    <g>
      <g>
        <polygon class="cls-3" points="661.24 612.61 661.24 612.95 660.97 612.79 661.24 612.61"/>
        <polygon points="661.24 612.61 660.97 612.79 661.24 612.95 661.24 612.61 661.24 612.61"/>
      </g>
      <polygon class="cls-6" points="703.25 636.87 702.84 637.12 661.24 661.12 661.24 612.61 661.54 612.79 661.55 612.79 703.25 636.87"/>
      <g>
        <polygon class="cls-3" points="703.26 588.36 703.26 588.7 702.95 588.52 703.25 588.36 703.26 588.36"/>
        <polygon points="703.26 588.36 703.25 588.36 702.95 588.52 703.26 588.7 703.26 588.36 703.26 588.36"/>
      </g>
    </g>
    <polygon class="cls-10" points="703.56 588.52 703.26 588.7 702.95 588.52 703.25 588.36 703.26 588.36 703.26 588.34 703.56 588.52"/>
    <g>
      <polygon class="cls-7" points="577.19 612.61 577.19 661.12 535.61 637.12 535.2 636.87 576.88 612.79 576.91 612.79 577.19 612.61"/>
      <polygon class="cls-9" points="577.48 612.79 577.19 612.95 577.19 612.61 577.48 612.79"/>
    </g>
    <polygon class="cls-1" points="577.19 612.61 577.19 661.12 535.61 637.12 535.2 636.87 576.88 612.79 576.91 612.79 577.19 612.61"/>
    <g>
      <g>
        <polygon class="cls-6" points="661.25 467.4 661.25 515.92 619.66 491.9 619.64 491.9 619.22 491.65 619.22 443.13 661.25 467.4"/>
        <polygon class="cls-1" points="703.26 443.13 703.26 491.65 702.84 491.91 661.24 515.92 661.24 467.4 703.26 443.13"/>
      </g>
      <g>
        <polygon class="cls-2" points="703.26 443.13 661.25 467.4 619.22 443.13 577.2 467.4 535.19 443.13 577.2 418.86 619.22 394.61 661.25 418.86 703.26 443.13"/>
        <polygon class="cls-6" points="577.19 467.4 577.19 515.92 535.61 491.91 535.19 491.65 535.19 443.13 577.19 467.4"/>
        <polygon class="cls-1" points="619.22 443.13 619.22 491.65 618.81 491.9 618.79 491.9 577.2 515.92 577.2 467.4 619.22 443.13"/>
      </g>
    </g>
    <path class="cls-5" d="m770.35,648.68c-.7,0-1.38-.36-1.76-1.01-.56-.97-.23-2.21.74-2.77l37.97-21.92c.97-.56,2.21-.23,2.77.74.56.97.23,2.21-.74,2.77l-37.97,21.92c-.32.18-.67.27-1.01.27Z"/>
    <g>
      <polygon class="cls-4" points="703.26 588.36 703.26 588.7 702.95 588.52 703.25 588.36 703.26 588.36"/>
      <polygon class="cls-9" points="703.56 588.52 703.26 588.7 703.26 588.34 703.56 588.52"/>
    </g>
    <g>
      <polygon class="cls-4" points="661.24 612.61 661.24 612.95 660.97 612.79 661.24 612.61"/>
      <polygon class="cls-9" points="661.54 612.79 661.24 612.95 661.24 612.61 661.54 612.79"/>
      <polygon class="cls-9" points="703.26 588.36 703.26 588.7 702.95 588.52 703.25 588.36 703.26 588.36"/>
    </g>
    <g>
      <polygon class="cls-1" points="745.29 418.86 745.29 467.4 703.26 443.13 661.25 418.86 619.22 394.61 577.2 418.86 535.19 443.13 493.16 467.4 493.16 418.86 535.19 394.61 577.2 370.35 619.22 346.1 661.25 370.35 703.26 394.61 745.29 418.86"/>
      <polygon class="cls-1" points="787.31 394.61 787.31 443.13 745.29 467.4 745.29 418.86 787.31 394.61"/>
    </g>
    <polygon class="cls-8" points="787.31 394.61 745.29 418.86 703.26 394.61 661.25 370.35 619.22 346.1 577.2 370.35 535.19 394.61 493.16 418.86 451.13 394.61 493.16 370.35 535.19 346.1 577.2 321.83 619.22 297.56 661.25 321.83 703.26 346.1 745.29 370.35 787.31 394.61"/>
    <polygon class="cls-10" points="661.54 564.25 661.24 564.43 660.84 564.69 660.82 564.69 619.53 588.52 619.52 588.52 619.22 588.36 618.93 588.52 618.92 588.52 577.63 564.69 577.61 564.69 577.19 564.43 576.91 564.25 577.19 564.09 618.92 540 618.93 540 619.22 539.83 619.52 540 619.53 540 661.24 564.09 661.54 564.25"/>
    <polygon class="cls-6" points="493.16 418.86 493.16 467.4 451.13 443.13 451.13 394.61 493.16 418.86"/>
    <path class="cls-5" d="m808.32,457.29c-.34,0-.69-.09-1.01-.27l-42.02-24.26c-.97-.56-1.3-1.8-.74-2.77.56-.97,1.8-1.3,2.77-.74l42.02,24.26c.97.56,1.3,1.8.74,2.77-.37.65-1.06,1.01-1.76,1.01Z"/>
    <g>
      <polygon class="cls-8" points="787.31 443.13 829.33 418.87 871.35 443.13 829.33 467.39 787.31 443.13"/>
      <polygon class="cls-6" points="829.34 467.4 829.34 515.92 829.32 515.92 787.32 491.67 787.32 491.65 787.3 491.65 787.3 443.13 787.32 443.13 808.32 455.27 829.34 467.4"/>
      <polygon class="cls-1" points="871.35 443.13 871.35 491.65 829.33 515.91 829.33 467.39 871.35 443.13"/>
    </g>
    <path class="cls-5" d="m787.32,493.68c-.7,0-1.38-.36-1.76-1.01-.56-.97-.23-2.21.74-2.77l21-12.13c.97-.56,2.21-.23,2.77.74s.23,2.21-.74,2.77l-21,12.13c-.32.18-.67.27-1.01.27Z"/>
    <path class="cls-5" d="m430.13,457.29c-.7,0-1.38-.36-1.76-1.01-.56-.97-.23-2.21.74-2.77l40.33-23.29c.97-.56,2.21-.23,2.77.74.56.97.23,2.21-.74,2.77l-40.33,23.29c-.32.18-.67.27-1.01.27Z"/>
    <g>
      <polygon class="cls-2" points="367.1 588.35 409.12 564.09 451.14 588.35 409.12 612.61 367.1 588.35"/>
      <polygon class="cls-6" points="409.12 612.61 409.12 661.13 367.1 636.87 367.1 588.35 409.12 612.61"/>
      <polygon class="cls-1" points="451.15 588.34 451.15 636.87 451.13 636.87 451.13 636.89 409.11 661.12 409.11 612.61 451.15 588.34"/>
    </g>
    <path class="cls-5" d="m451.13,638.9c-.44,0-.85-.14-1.19-.38l-20.83-12.01c-.97-.56-1.3-1.8-.74-2.77.56-.97,1.8-1.3,2.77-.74l21,12.12c.63.36,1.01,1.03,1.01,1.76,0,1.12-.91,2.04-2.03,2.04Z"/>
    <path class="cls-5" d="m409.12,587.5c-1.12,0-2.03-.91-2.03-2.03v-69.56c0-1.12.91-2.03,2.03-2.03s2.03.91,2.03,2.03v69.56c0,1.12-.91,2.03-2.03,2.03Z"/>
    <g>
      <polygon class="cls-8" points="367.1 443.13 409.12 418.87 451.14 443.13 409.12 467.39 367.1 443.13"/>
      <polygon class="cls-6" points="409.12 467.39 409.12 515.91 367.1 491.65 367.1 443.13 409.12 467.39"/>
      <polygon class="cls-1" points="451.15 443.13 451.15 491.65 451.13 491.65 451.13 491.67 409.13 515.92 409.11 515.92 409.11 467.4 430.13 455.27 451.13 443.13 451.15 443.13"/>
    </g>
    <path class="cls-5" d="m451.13,493.68c-.34,0-.69-.09-1.01-.27l-21-12.13c-.97-.56-1.3-1.8-.74-2.77.56-.97,1.8-1.3,2.77-.74l21,12.13c.97.56,1.3,1.8.74,2.77-.38.65-1.06,1.01-1.76,1.01Z"/>
    <g>
      <polygon class="cls-6" points="619.22 588.7 619.22 782.44 577.19 758.19 535.19 733.91 493.17 709.64 451.13 685.39 451.13 636.87 451.15 636.87 472.15 648.99 493.17 661.12 535.19 685.39 577.19 709.64 577.19 612.95 576.91 612.79 576.88 612.79 535.19 588.7 534.89 588.52 534.88 588.52 493.17 564.43 451.13 540.17 451.13 491.65 451.15 491.65 472.15 503.78 493.17 515.92 535.19 540.17 576.91 564.25 577.19 564.43 577.61 564.69 577.63 564.69 618.92 588.52 618.93 588.52 619.22 588.7"/>
      <line class="cls-4" x1="577.19" y1="612.95" x2="576.91" y2="612.79"/>
    </g>
    <polygon class="cls-1" points="703.25 588.36 702.95 588.52 703.26 588.7 661.55 612.79 661.54 612.79 661.24 612.61 660.97 612.79 661.24 612.95 661.24 661.12 660.97 661.3 661.24 661.47 661.24 709.64 661.54 709.46 703.26 685.39 745.28 661.12 787.32 636.87 787.32 685.39 745.28 709.64 703.26 733.91 661.24 758.19 619.22 782.44 619.22 588.7 619.52 588.52 619.53 588.52 660.82 564.69 660.84 564.69 661.24 564.43 661.54 564.25 703.26 540.17 745.28 515.92 770.35 501.44 787.3 491.65 787.32 491.65 787.32 540.17 745.28 564.43 703.56 588.52 703.26 588.34 703.26 588.36 703.25 588.36"/>
    <polygon class="cls-9" points="661.54 612.79 661.24 612.95 660.97 612.79 661.24 612.61 661.54 612.79"/>
    <polygon class="cls-9" points="703.56 588.52 703.26 588.7 702.95 588.52 703.25 588.36 703.26 588.36 703.26 588.34 703.56 588.52"/>
    <polygon class="cls-8" points="787.3 491.63 787.3 491.65 770.35 501.44 745.28 515.92 703.26 540.17 661.54 564.25 661.24 564.43 660.84 564.69 660.82 564.69 619.53 588.52 619.52 588.52 619.22 588.7 618.93 588.52 618.92 588.52 577.63 564.69 577.61 564.69 577.19 564.43 576.91 564.25 535.19 540.17 493.17 515.92 472.15 503.78 451.15 491.65 451.15 491.63 493.17 467.4 535.19 491.65 535.61 491.91 577.19 515.92 577.61 516.16 618.92 540 618.93 540 619.22 540.17 619.52 540 619.53 540 660.84 516.16 661.24 515.92 702.84 491.91 703.26 491.65 745.28 467.4 787.3 491.63"/>
    <polygon class="cls-8" points="535.61 637.12 535.2 636.87 576.88 612.79 535.19 588.7 534.89 588.52 534.88 588.52 493.17 612.61 451.15 636.84 451.15 636.86 451.15 636.87 472.15 648.99 493.17 661.12 535.19 685.37 576.91 709.46 577.19 709.64 577.19 661.12 535.61 637.12"/>
    <polygon class="cls-8" points="787.3 636.86 787.3 636.84 745.28 612.61 703.56 588.52 703.26 588.36 703.25 588.36 702.95 588.52 703.26 588.7 661.55 612.79 703.25 636.87 702.84 637.12 661.24 661.12 660.97 661.3 661.24 661.47 661.24 709.64 661.54 709.46 703.26 685.37 745.28 661.12 787.32 636.87 787.3 636.86"/>
  </g>
</svg>